<svg id="Capa_1" data-name="Capa 1" xmlns="http://www.w3.org/2000/svg" viewBox="0 0 800 218.06"><defs><style>.cls-1{fill:#101d2d;}.cls-2{fill:#dd0837;}</style></defs><path class="cls-1" d="M279.74,81.18a38.22,38.22,0,0,1,14.18,2.61,34.8,34.8,0,0,1,11.44,7.26,33.46,33.46,0,0,1,7.58,11,35.74,35.74,0,0,1,0,27.45,33.56,33.56,0,0,1-7.58,11,36,36,0,0,1-11.44,7.32,38.88,38.88,0,0,1-28.37,0,36,36,0,0,1-11.44-7.32,33.56,33.56,0,0,1-7.58-11,35.74,35.74,0,0,1,0-27.45,33.46,33.46,0,0,1,7.58-11,34.8,34.8,0,0,1,11.44-7.26A38.24,38.24,0,0,1,279.74,81.18Zm0,56.08a20.57,20.57,0,0,0,8.23-1.64,18.6,18.6,0,0,0,6.47-4.57,21.7,21.7,0,0,0,4.18-6.8,22.85,22.85,0,0,0,1.51-8.43,24,24,0,0,0-1.51-8.57,20.59,20.59,0,0,0-4.18-6.86A19.12,19.12,0,0,0,288,95.88a21.79,21.79,0,0,0-16.54,0,19.23,19.23,0,0,0-6.4,4.51,20.59,20.59,0,0,0-4.18,6.86,24,24,0,0,0-1.51,8.57,22.85,22.85,0,0,0,1.51,8.43,21.7,21.7,0,0,0,4.18,6.8,18.7,18.7,0,0,0,6.4,4.57A20.47,20.47,0,0,0,279.74,137.26Z"/><path class="cls-1" d="M328.62,71.37q0-3.66,2.09-5.29a9.15,9.15,0,0,1,5.76-1.64,15.77,15.77,0,0,1,4.38.59c1.35.39,2.24.68,2.68.85V83h19c2.88,0,4.9.58,6.08,1.76a7,7,0,0,1,1.76,5.16,12.4,12.4,0,0,1-.65,4.12,23,23,0,0,1-1.05,2.68H343.53v29.15a14.38,14.38,0,0,0,.91,5.56A8.63,8.63,0,0,0,347,134.9a9.63,9.63,0,0,0,3.79,1.83,19,19,0,0,0,4.51.53,20.8,20.8,0,0,0,7.06-1.18,20.54,20.54,0,0,0,4.71-2.22l6,9.93c-.7.52-1.68,1.18-2.94,2a26.51,26.51,0,0,1-4.64,2.22,41,41,0,0,1-6.15,1.77,36,36,0,0,1-7.45.72q-11.5,0-17.38-6t-5.89-15.62Z"/><path class="cls-1" d="M388.89,53.59a8.93,8.93,0,1,1-6.41,2.62A8.72,8.72,0,0,1,388.89,53.59Zm-7.45,36.34c0-2.44.69-4.2,2.09-5.29A9.33,9.33,0,0,1,389.41,83a15,15,0,0,1,4.31.58c1.31.4,2.18.68,2.62.85v64.19h-14.9Z"/><path class="cls-1" d="M412.28,89.93q0-3.66,2.1-5.29A9.33,9.33,0,0,1,420.26,83a15,15,0,0,1,4.31.58c1.31.4,2.18.68,2.62.85v34.38q0,8.9,4.18,13.53T444.18,137q8.63,0,12.81-4.64t4.18-13.53V89.93q0-3.66,2.1-5.29A9.1,9.1,0,0,1,469,83a15.51,15.51,0,0,1,4.44.58c1.31.4,2.18.68,2.62.85v37.65a29.94,29.94,0,0,1-2.29,12,24.55,24.55,0,0,1-6.54,9,28.81,28.81,0,0,1-10.13,5.55,45,45,0,0,1-25.88,0A28.19,28.19,0,0,1,421.17,143a25.47,25.47,0,0,1-6.53-9,29.11,29.11,0,0,1-2.36-12Z"/><path class="cls-1" d="M491.37,106.4a25.5,25.5,0,0,1,2.22-11,22.17,22.17,0,0,1,6.08-7.84,27,27,0,0,1,9.09-4.77,37.87,37.87,0,0,1,11.37-1.63,33.82,33.82,0,0,1,14.51,3,24,24,0,0,1,10.19,8.89,24.3,24.3,0,0,1,10.07-8.89,32.62,32.62,0,0,1,14.25-3,39.15,39.15,0,0,1,11.24,1.56,25.59,25.59,0,0,1,9,4.71,22.46,22.46,0,0,1,6,7.84,25.5,25.5,0,0,1,2.23,11v42.36H582.74V111.37q0-9-4-12.87t-11-3.86A15.58,15.58,0,0,0,556.53,99q-4.5,4.32-4.51,14v35.69h-14.9V112.94q0-9.68-4.51-14a15.54,15.54,0,0,0-11.17-4.31q-6.81,0-11,3.92t-4.18,12.94v37.13h-14.9Z"/><path class="cls-1" d="M613.2,71.37q0-3.66,2.09-5.29A9.1,9.1,0,0,1,621,64.44a15.72,15.72,0,0,1,4.38.59c1.35.39,2.25.68,2.68.85V83h19c2.87,0,4.9.58,6.07,1.76a7,7,0,0,1,1.77,5.16,12.67,12.67,0,0,1-.65,4.12,25,25,0,0,1-1,2.68H628.1v29.15a14.37,14.37,0,0,0,.92,5.56,8.54,8.54,0,0,0,2.55,3.46,9.56,9.56,0,0,0,3.79,1.83,19,19,0,0,0,4.51.53,22.49,22.49,0,0,0,11.76-3.4l6,9.93c-.69.52-1.67,1.18-2.94,2a26.17,26.17,0,0,1-4.64,2.22,41.17,41.17,0,0,1-6.14,1.77,36,36,0,0,1-7.45.72q-11.51,0-17.39-6t-5.88-15.62Z"/><path class="cls-1" d="M721.18,143.79q-1,.66-3.27,1.83a32.72,32.72,0,0,1-5.56,2.22,62,62,0,0,1-7.71,1.83,53.93,53.93,0,0,1-9.61.79,41.06,41.06,0,0,1-13.66-2.22,31.88,31.88,0,0,1-11.11-6.61,31,31,0,0,1-7.52-10.72A36.34,36.34,0,0,1,660,116.34,37,37,0,0,1,662.68,102a32.76,32.76,0,0,1,7.45-11.12,33.67,33.67,0,0,1,11.24-7.19,38.53,38.53,0,0,1,14.18-2.54,37.52,37.52,0,0,1,12,1.76,27.8,27.8,0,0,1,8.82,4.71,19.22,19.22,0,0,1,7.26,15.23,19.83,19.83,0,0,1-1.7,8.3,15,15,0,0,1-6,6.4,35.85,35.85,0,0,1-11.64,4.18,94.13,94.13,0,0,1-18.56,1.51c-1.74,0-3.38,0-4.9-.07s-3.16-.11-4.9-.19a16.19,16.19,0,0,0,6.47,10.78q5.42,4.13,15.49,4.12a35.05,35.05,0,0,0,11.43-1.83,38.6,38.6,0,0,0,3.93-1.57c1.09-.52,1.89-.92,2.42-1.18Zm-45.89-31c2,.09,3.92.13,5.75.13h5.5a59.77,59.77,0,0,0,11.63-.91,23.64,23.64,0,0,0,6.93-2.36,7.32,7.32,0,0,0,3.27-3.27,9.56,9.56,0,0,0,.78-3.79,8.2,8.2,0,0,0-4-7.45,18.39,18.39,0,0,0-9.87-2.48,20,20,0,0,0-8.49,1.7,18.52,18.52,0,0,0-6.15,4.51,20.54,20.54,0,0,0-3.85,6.47A23.32,23.32,0,0,0,675.29,112.81Z"/><path class="cls-1" d="M734.77,59.21A6.33,6.33,0,0,1,736.86,54a9.05,9.05,0,0,1,5.88-1.7,15.1,15.1,0,0,1,4.32.58c1.31.4,2.17.68,2.61.85v53.47c1.13-.79,2.72-1.94,4.77-3.47s4.34-3.2,6.87-5,5.14-3.74,7.84-5.75,5.27-3.88,7.71-5.62a33.57,33.57,0,0,1,5.23-3.2A14.5,14.5,0,0,1,788.23,83a9.65,9.65,0,0,1,6,1.89,11.19,11.19,0,0,1,3.14,3.2q-2.76,2.49-7.52,6.08t-9.74,7.19q-5,3.6-9.41,6.67c-3,2-5.1,3.55-6.41,4.51a157.12,157.12,0,0,1,20.26,17.84A182.66,182.66,0,0,1,800,148.63H781.44q-3-3.66-6.73-7.65t-8-7.84q-4.25-3.85-8.63-7.45t-8.43-6.61v29.55h-14.9Z"/><path class="cls-2" d="M96.57,86l52-62A98.27,98.27,0,0,0,98.77,10.52c-2.94,0-5.85.15-8.72.4Z"/><path class="cls-2" d="M188.07,67.05l-64,45,56,53.46a98.8,98.8,0,0,0,8.08-98.42Z"/><path class="cls-2" d="M66.37,112,38.88,30.76a98.73,98.73,0,0,0-2.14,155.36Z"/><path class="cls-2" d="M97.12,139.21l-11.87,67.9A98,98,0,0,0,130.07,203Z"/><path class="cls-1" d="M98.77,109.46l66.71-72.67s3.43,3.26,4.52,4.4,4.7,5.27,4.7,5.27l-74.25,63,66.37,71.75s-3.9,3.53-5.25,4.65-5.06,3.91-5.06,3.91Z"/></svg>