<?xml version="1.0" encoding="UTF-8"?>
<svg id="Capa_2" data-name="Capa 2" xmlns="http://www.w3.org/2000/svg" viewBox="0 0 422.03 299.95">
  <g id="Capa_1-2" data-name="Capa 1">
    <g>
      <path d="m204,172.69v-36c27.76,0,50.35-22.58,50.35-50.35s-22.58-50.35-50.35-50.35-50.35,22.59-50.35,50.35h-36C117.65,38.73,156.39,0,204,0s86.35,38.73,86.35,86.35-38.73,86.35-86.35,86.35Z" fill="#0d77b4" stroke-width="0"/>
      <path d="m136.69,116.64v96.96c0,27.76-22.58,50.35-50.35,50.35s-50.35-22.59-50.35-50.35,22.58-50.35,50.35-50.35v-36C38.73,127.25,0,165.99,0,213.6s38.73,86.35,86.35,86.35,86.35-38.73,86.35-86.35v-96.96h-36Z" fill="#00d2d1" stroke-width="0"/>
      <g>
        <path d="m271.05,227.92c0,4.09-.71,7.84-2.13,11.28-1.42,3.43-3.38,6.39-5.87,8.87-2.5,2.48-5.46,4.42-8.89,5.83-3.43,1.4-7.16,2.11-11.18,2.11h-32.84c-.87,0-1.68-.16-2.43-.47-.75-.31-1.4-.74-1.94-1.29-.55-.55-.98-1.19-1.29-1.94-.31-.75-.47-1.56-.47-2.43v-54.83c0-.84.16-1.64.47-2.39.31-.75.74-1.4,1.29-1.97.54-.56,1.19-1,1.94-1.31s1.56-.47,2.43-.47h32.84c4.02,0,7.75.7,11.18,2.11,3.43,1.4,6.39,3.34,8.89,5.83,2.5,2.48,4.45,5.44,5.87,8.89,1.42,3.45,2.13,7.2,2.13,11.25v10.95Zm-12.17-10.95c0-2.37-.38-4.54-1.15-6.5-.77-1.96-1.85-3.64-3.25-5.03-1.4-1.39-3.08-2.46-5.03-3.23-1.95-.76-4.11-1.15-6.48-1.15h-26.81v42.76h26.81c2.37,0,4.53-.38,6.48-1.15,1.95-.76,3.63-1.84,5.03-3.23,1.4-1.39,2.49-3.06,3.25-5.01.76-1.95,1.15-4.12,1.15-6.53v-10.95Z" fill="#00d2d1" stroke-width="0"/>
        <path d="m347.45,236.25c0,2.4-.3,4.56-.91,6.48-.61,1.92-1.41,3.61-2.41,5.08-1,1.47-2.17,2.71-3.51,3.74-1.34,1.03-2.73,1.87-4.16,2.53-1.44.66-2.89,1.14-4.37,1.45-1.48.31-2.88.47-4.19.47h-46.93v-12.16h46.93c2.34,0,4.16-.69,5.45-2.06,1.29-1.37,1.94-3.21,1.94-5.52,0-1.12-.17-2.15-.51-3.09-.34-.94-.83-1.75-1.47-2.43-.64-.69-1.42-1.22-2.34-1.59-.92-.38-1.94-.56-3.06-.56h-27.98c-1.96,0-4.09-.35-6.36-1.05-2.28-.7-4.39-1.83-6.34-3.39-1.95-1.56-3.57-3.6-4.87-6.13-1.29-2.53-1.94-5.61-1.94-9.26s.65-6.73,1.94-9.24c1.29-2.51,2.92-4.55,4.87-6.13,1.95-1.57,4.06-2.71,6.34-3.42,2.28-.7,4.4-1.05,6.36-1.05h41.41v12.16h-41.41c-2.31,0-4.11.7-5.4,2.11-1.29,1.4-1.94,3.26-1.94,5.57s.65,4.19,1.94,5.54c1.29,1.36,3.1,2.04,5.4,2.04h28.07c1.31.03,2.7.21,4.16.54,1.47.33,2.92.83,4.37,1.52,1.45.69,2.83,1.55,4.14,2.6,1.31,1.05,2.47,2.3,3.49,3.77,1.01,1.47,1.82,3.15,2.41,5.05.59,1.9.89,4.06.89,6.46Z" fill="#00d2d1" stroke-width="0"/>
        <path d="m422.03,236.25c0,2.4-.3,4.56-.91,6.48-.61,1.92-1.41,3.61-2.41,5.08-1,1.47-2.17,2.71-3.51,3.74-1.34,1.03-2.73,1.87-4.16,2.53-1.44.66-2.89,1.14-4.37,1.45-1.48.31-2.88.47-4.19.47h-46.93v-12.16h46.93c2.34,0,4.16-.69,5.45-2.06,1.29-1.37,1.94-3.21,1.94-5.52,0-1.12-.17-2.15-.51-3.09-.34-.94-.83-1.75-1.47-2.43-.64-.69-1.42-1.22-2.34-1.59-.92-.38-1.94-.56-3.06-.56h-27.98c-1.96,0-4.09-.35-6.36-1.05-2.28-.7-4.39-1.83-6.34-3.39-1.95-1.56-3.57-3.6-4.87-6.13-1.29-2.53-1.94-5.61-1.94-9.26s.65-6.73,1.94-9.24c1.29-2.51,2.92-4.55,4.87-6.13,1.95-1.57,4.06-2.71,6.34-3.42,2.28-.7,4.4-1.05,6.36-1.05h41.41v12.16h-41.41c-2.31,0-4.11.7-5.4,2.11-1.29,1.4-1.94,3.26-1.94,5.57s.65,4.19,1.94,5.54c1.29,1.36,3.1,2.04,5.4,2.04h28.07c1.31.03,2.7.21,4.16.54,1.47.33,2.92.83,4.37,1.52,1.45.69,2.83,1.55,4.14,2.6,1.31,1.05,2.47,2.3,3.49,3.77,1.01,1.47,1.82,3.15,2.41,5.05.59,1.9.89,4.06.89,6.46Z" fill="#00d2d1" stroke-width="0"/>
      </g>
      <g>
        <path d="m223.1,294.82h-13.75c-.35,0-.73-.04-1.14-.12-.41-.08-.81-.21-1.2-.39-.4-.18-.77-.4-1.14-.68-.36-.28-.68-.62-.96-1.01-.28-.4-.5-.86-.67-1.38-.17-.52-.25-1.11-.25-1.77v-10.32c0-.35.04-.73.12-1.14.08-.41.21-.81.39-1.2.18-.4.41-.77.69-1.14.28-.36.62-.68,1.02-.96.4-.28.85-.5,1.37-.67s1.1-.25,1.76-.25h13.75v3.81h-13.75c-.5,0-.88.13-1.14.4-.26.26-.4.65-.4,1.17v10.29c0,.49.13.87.4,1.14.27.27.65.4,1.14.4h13.75v3.81Z" fill="#0d77b4" stroke-width="0"/>
        <path d="m248.46,286.32c0,1.28-.22,2.46-.66,3.53-.44,1.08-1.05,2-1.83,2.79-.78.78-1.71,1.39-2.78,1.83-1.07.43-2.24.65-3.5.65h-5.16c-1.26,0-2.43-.22-3.5-.65-1.08-.43-2-1.04-2.79-1.83-.78-.78-1.4-1.71-1.84-2.79-.44-1.07-.67-2.25-.67-3.53v-4.02c0-1.27.22-2.45.67-3.52.44-1.08,1.06-2.01,1.84-2.79.78-.78,1.71-1.39,2.79-1.83,1.07-.44,2.24-.66,3.5-.66h5.16c1.26,0,2.43.22,3.5.66,1.07.44,2,1.05,2.78,1.83.78.78,1.39,1.71,1.83,2.79.44,1.08.66,2.25.66,3.52v4.02Zm-3.81-4.02c0-.75-.12-1.43-.36-2.04-.24-.61-.58-1.13-1.01-1.57-.43-.44-.96-.77-1.57-1.01s-1.28-.36-2.02-.36h-5.16c-.74,0-1.42.12-2.03.36s-1.14.58-1.58,1.01c-.44.43-.78.96-1.02,1.57-.24.61-.36,1.29-.36,2.04v4.02c0,.75.12,1.43.36,2.04.24.61.58,1.13,1.02,1.57s.96.77,1.58,1.01,1.29.36,2.03.36h5.13c.74,0,1.42-.12,2.03-.36s1.14-.58,1.58-1.01c.44-.43.78-.96,1.02-1.57.24-.61.36-1.29.36-2.04v-4.02Z" fill="#0d77b4" stroke-width="0"/>
        <path d="m273.23,293.2c0,.27-.05.53-.15.76s-.24.44-.41.61-.37.31-.61.4c-.23.1-.48.15-.75.15-.23,0-.47-.04-.71-.13-.24-.09-.45-.23-.64-.42l-13.93-14.54v14.8h-3.81v-19.39c0-.39.11-.75.33-1.06.22-.32.5-.55.84-.71.36-.15.73-.18,1.11-.11s.71.25.98.54l13.93,14.53v-14.8h3.81v19.39Z" fill="#0d77b4" stroke-width="0"/>
        <path d="m298.66,293.2c0,.27-.05.53-.15.76s-.24.44-.41.61-.37.31-.61.4c-.23.1-.48.15-.75.15-.23,0-.47-.04-.71-.13-.24-.09-.45-.23-.64-.42l-13.93-14.54v14.8h-3.81v-19.39c0-.39.11-.75.33-1.06.22-.32.5-.55.84-.71.36-.15.73-.18,1.11-.11s.71.25.98.54l13.93,14.53v-14.8h3.81v19.39Z" fill="#0d77b4" stroke-width="0"/>
        <path d="m322.08,294.82h-13.75c-.53,0-1.1-.09-1.73-.28-.63-.19-1.2-.49-1.74-.92-.53-.42-.98-.98-1.33-1.66-.36-.68-.54-1.51-.54-2.5v-13.75c0-.26.05-.51.15-.75.1-.24.23-.44.4-.62.17-.18.37-.31.61-.41.23-.1.49-.15.76-.15h17.16v3.81h-15.27v11.86c0,.5.13.88.4,1.14.26.26.65.4,1.16.4h13.72v3.81Zm-1.71-8.59h-12.03v-3.84h12.03v3.84Z" fill="#0d77b4" stroke-width="0"/>
        <path d="m344.45,294.82h-13.75c-.35,0-.73-.04-1.14-.12-.41-.08-.81-.21-1.2-.39-.4-.18-.77-.4-1.14-.68-.36-.28-.68-.62-.96-1.01-.28-.4-.5-.86-.67-1.38-.17-.52-.25-1.11-.25-1.77v-10.32c0-.35.04-.73.12-1.14.08-.41.21-.81.39-1.2.18-.4.41-.77.69-1.14.28-.36.62-.68,1.02-.96.4-.28.85-.5,1.37-.67s1.1-.25,1.76-.25h13.75v3.81h-13.75c-.5,0-.88.13-1.14.4-.26.26-.4.65-.4,1.17v10.29c0,.49.13.87.4,1.14.27.27.65.4,1.14.4h13.75v3.81Z" fill="#0d77b4" stroke-width="0"/>
        <path d="m367.05,277.61h-8.4v17.21h-3.81v-17.21h-8.41v-3.81h20.62v3.81Z" fill="#0d77b4" stroke-width="0"/>
        <path d="m391.62,286.32c0,1.28-.22,2.46-.66,3.53-.44,1.08-1.05,2-1.83,2.79-.78.78-1.71,1.39-2.78,1.83-1.07.43-2.24.65-3.5.65h-5.16c-1.26,0-2.43-.22-3.5-.65-1.08-.43-2-1.04-2.79-1.83-.78-.78-1.4-1.71-1.84-2.79-.44-1.07-.67-2.25-.67-3.53v-4.02c0-1.27.22-2.45.67-3.52.44-1.08,1.06-2.01,1.84-2.79.78-.78,1.71-1.39,2.79-1.83,1.07-.44,2.24-.66,3.5-.66h5.16c1.26,0,2.43.22,3.5.66,1.07.44,2,1.05,2.78,1.83.78.78,1.39,1.71,1.83,2.79.44,1.08.66,2.25.66,3.52v4.02Zm-3.81-4.02c0-.75-.12-1.43-.36-2.04-.24-.61-.58-1.13-1.01-1.57-.43-.44-.96-.77-1.57-1.01s-1.28-.36-2.02-.36h-5.16c-.74,0-1.42.12-2.03.36s-1.14.58-1.58,1.01c-.44.43-.78.96-1.02,1.57-.24.61-.36,1.29-.36,2.04v4.02c0,.75.12,1.43.36,2.04.24.61.58,1.13,1.02,1.57s.96.77,1.58,1.01,1.29.36,2.03.36h5.13c.74,0,1.42-.12,2.03-.36s1.14-.58,1.58-1.01c.44-.43.78-.96,1.02-1.57.24-.61.36-1.29.36-2.04v-4.02Z" fill="#0d77b4" stroke-width="0"/>
        <path d="m416.39,280.87c0,.87-.11,1.65-.32,2.33-.21.68-.51,1.29-.87,1.81-.37.52-.79.97-1.27,1.34-.48.37-.98.68-1.5.92-.52.24-1.05.41-1.58.52-.53.11-1.03.16-1.5.16l7.96,6.88h-5.89l-7.94-6.88h-2.74v-3.81h8.62c.48-.04.92-.14,1.31-.3.4-.16.74-.38,1.03-.65.29-.27.51-.6.67-.99.16-.39.23-.83.23-1.33v-2.4c0-.21-.03-.38-.08-.49-.05-.11-.12-.2-.21-.25s-.17-.09-.26-.1-.18-.01-.26-.01h-12.58v17.21h-3.81v-19.1c0-.26.05-.51.15-.75.1-.24.23-.44.4-.62.17-.18.37-.31.61-.41.23-.1.49-.15.76-.15h14.47c.85,0,1.57.15,2.15.46.59.31,1.06.69,1.43,1.16.37.46.63.97.79,1.5.16.54.24,1.04.24,1.51v2.43Z" fill="#0d77b4" stroke-width="0"/>
      </g>
    </g>
  </g>
</svg>